<?xml version="1.0" standalone="no"?>
<!DOCTYPE svg PUBLIC "-//W3C//DTD SVG 20010904//EN"
 "http://www.w3.org/TR/2001/REC-SVG-20010904/DTD/svg10.dtd">
<svg version="1.0" xmlns="http://www.w3.org/2000/svg"
 width="400.000000pt" height="400.000000pt" viewBox="0 0 400.000000 400.000000"
 preserveAspectRatio="xMidYMid meet">
<metadata>
Created by potrace 1.14, written by Peter Selinger 2001-2017
</metadata>
<g transform="translate(0.000000,400.000000) scale(0.100000,-0.100000)"
fill="#000000" stroke="none">
<path d="M2129 3976 c-36 -13 -107 -46 -157 -74 -51 -29 -95 -52 -100 -52 -15
0 -125 -81 -173 -127 -25 -24 -49 -40 -53 -36 -4 5 -6 1 -4 -7 2 -9 -4 -14
-14 -14 -10 1 -16 -2 -13 -6 7 -11 -30 -41 -39 -33 -4 5 -6 3 -4 -4 2 -6 -32
-45 -75 -87 -89 -87 -84 -64 15 67 32 43 58 79 58 81 0 15 -324 -61 -440 -104
-47 -17 -94 -32 -105 -33 -11 -1 -22 -4 -25 -7 -10 -10 -115 -53 -132 -53 -9
-1 -15 -4 -12 -8 2 -4 -5 -10 -16 -14 -22 -7 -208 -130 -292 -193 -58 -43
-155 -141 -224 -227 -27 -33 -52 -61 -56 -63 -5 -2 -8 -9 -8 -15 0 -6 -10 -22
-22 -35 -22 -23 -22 -24 -3 -18 11 3 76 35 144 71 68 36 128 62 134 58 5 -3 7
-2 4 3 -3 6 6 15 21 21 119 52 267 99 337 108 l50 7 -70 -35 c-38 -19 -110
-58 -160 -87 -49 -29 -96 -53 -102 -53 -7 0 -13 -4 -13 -8 0 -8 -86 -69 -97
-69 -6 0 -133 -110 -173 -150 -14 -14 -50 -55 -80 -90 -30 -36 -61 -69 -68
-73 -6 -4 -12 -12 -12 -18 0 -5 -22 -56 -49 -112 -27 -56 -60 -145 -73 -197
-21 -87 -23 -117 -23 -340 0 -240 1 -247 28 -335 32 -104 73 -199 99 -234 10
-13 18 -30 18 -37 0 -38 164 -228 245 -283 22 -16 39 -33 37 -40 -1 -7 2 -9 9
-5 7 4 17 0 23 -8 16 -21 145 -106 251 -164 90 -50 136 -70 210 -94 22 -7 74
-29 115 -48 41 -19 80 -36 87 -38 23 -4 220 -84 281 -112 34 -16 58 -33 54
-37 -4 -5 -2 -5 5 -1 15 9 84 -24 76 -37 -3 -6 -1 -7 6 -3 6 4 19 2 28 -6 15
-12 15 -9 9 27 -10 54 -41 143 -71 207 -32 68 -154 270 -180 300 -51 57 -53
64 -10 38 89 -53 280 -233 268 -253 -3 -6 -2 -7 4 -4 13 8 61 -50 100 -120 76
-138 144 -286 139 -299 -3 -8 -2 -13 3 -10 10 6 42 -98 74 -242 13 -57 27
-104 31 -105 4 -1 21 25 38 58 17 33 35 67 40 75 43 77 142 310 172 405 71
227 95 485 62 680 -17 99 -67 243 -111 324 -14 24 -22 48 -18 54 3 5 1 7 -4 4
-6 -4 -20 8 -30 26 -11 17 -33 47 -49 66 -16 19 -42 49 -57 67 -16 19 -25 38
-21 45 5 8 3 9 -5 4 -7 -4 -22 1 -34 13 -12 11 -67 55 -122 97 -55 43 -107 87
-116 99 -9 12 -29 35 -43 51 -14 17 -24 36 -21 42 2 7 0 12 -6 10 -17 -3 -67
92 -85 163 -11 45 -14 83 -10 124 7 70 41 174 65 198 15 16 16 11 17 -75 1
-68 7 -107 24 -150 20 -53 31 -70 90 -133 33 -36 109 -65 215 -84 105 -19 178
-46 168 -63 -3 -6 -1 -7 4 -4 16 10 59 -28 106 -96 56 -80 74 -126 92 -245 25
-158 79 -242 135 -212 41 22 53 95 25 150 -9 17 -12 30 -7 30 22 0 82 -74 102
-127 11 -31 31 -66 43 -77 48 -45 163 5 208 90 13 24 26 44 29 44 9 0 15 74
13 170 -1 69 -9 121 -29 190 -14 52 -27 107 -28 122 0 14 -4 25 -7 23 -6 -4
-120 337 -145 435 -10 40 -19 136 -24 250 -4 102 -7 185 -6 186 48 29 220 103
229 98 6 -4 9 -3 5 1 -10 10 93 68 176 99 33 13 178 83 321 155 143 73 280
139 305 148 25 8 91 39 148 69 57 30 109 51 115 48 7 -4 9 -3 4 1 -4 5 14 19
40 31 63 30 33 30 -64 0 -43 -14 -94 -29 -113 -34 -19 -6 -98 -29 -175 -52
-163 -49 -165 -49 -227 -60 -26 -5 -110 -27 -185 -50 -300 -89 -401 -119 -478
-140 -44 -12 -111 -32 -148 -44 l-69 -22 24 -30 c22 -28 58 -97 58 -112 0 -4
-13 15 -29 41 -61 104 -205 218 -332 262 l-74 26 81 -6 81 -6 12 46 c15 59 82
205 105 228 10 9 14 17 11 17 -4 0 9 20 30 45 l37 46 -34 -6 c-57 -10 -140
-36 -164 -52 -13 -8 -29 -11 -35 -7 -7 4 -9 3 -6 -3 7 -11 -66 -56 -77 -48 -3
3 -4 2 -1 -2 8 -10 -55 -44 -67 -37 -6 4 -8 3 -4 -4 5 -9 -42 -52 -58 -52 -5
0 22 82 46 138 8 18 18 29 23 25 4 -5 5 -3 1 4 -3 6 2 29 13 50 35 69 70 153
63 153 -4 0 -37 -11 -73 -24z m308 -1173 c18 -11 30 -23 25 -28 -4 -5 -2 -6 3
-2 6 3 21 0 34 -7 19 -11 20 -14 8 -19 -9 -3 -19 -22 -23 -41 -3 -20 -9 -36
-13 -36 -3 0 -28 33 -54 73 -26 39 -56 83 -65 97 l-17 24 35 -21 c19 -11 50
-30 67 -40z"/>
</g>
</svg>
